# AST/ASF file generated using VICON BodyLanguage
# -----------------------------------------------
:version 1.10
:name VICON
:units
  mass 1.0
  length 0.45
  angle deg
:documentation
   .ast/.asf automatically generated from VICON data using
   VICON BodyBuilder and BodyLanguage model FoxedUp or BRILLIANT.MOD
:root
   order TX TY TZ RX RY RZ
   axis XYZ
   position 0 0 0  
   orientation 0 0 0 
:bonedata
  begin
     id 1 
     name lhipjoint
     direction 0.700308 -0.549349 0.455834 
     length 2.59063 
     axis 0 0 0  XYZ
  end
  begin
     id 2 
     name lfemur
     direction 0.34202 -0.939693 0  
     length 6.31066  
     axis 0 0 20  XYZ
    dof rx ry rz
    limits (-160.0 20.0)
           (-70.0 70.0)
           (-60.0 70.0)
  end
  begin
     id 3 
     name ltibia
     direction 0.34202 -0.939693 0   
     length 7.36093   
     axis 0 0 20   XYZ
    dof rx
    limits (-10.0 170.0)
  end
  begin
     id 4 
     name lfoot
     direction 0.0905332 -0.248738 0.96433   
     length 2.0233   
     axis -90 7.62852e-016 20   XYZ
    dof rx rz
    limits (-45.0 90.0)
           (-70.0 20.0)
  end
  begin
     id 5 
     name ltoes
     direction 1.53573e-011 -4.21855e-011 1   
     length 1.01524   
     axis -90 7.62852e-016 20   XYZ
    dof rx
    limits (-90.0 20.0)
  end
  begin
     id 6 
     name rhipjoint
     direction -0.61416 -0.607328 0.503944   
     length 2.34332  
     axis 0 0 0  XYZ 
  end
  begin
     id 7 
     name rfemur
     direction -0.34202 -0.939693 0   
     length 6.58548   
     axis 0 0 -20   XYZ
    dof rx ry rz
    limits (-160.0 20.0)
           (-70.0 70.0)
           (-70.0 60.0)
  end
  begin
     id 8 
     name rtibia
     direction -0.34202 -0.939693 0   
     length 7.20707   
     axis 0 0 -20   XYZ
    dof rx
    limits (-10.0 170.0)
 end
 begin
     id 9 
     name rfoot
     direction -0.136772 -0.375778 0.916561   
     length 1.92184  
     axis -90 -7.62852e-016 -20   XYZ
    dof rx rz
    limits (-45.0 90.0)
           (-20.0 70.0)
  end
  begin
     id 10 
     name rtoes
     direction -1.53535e-011 -4.21828e-011 1   
     length 0.951089   
     axis -90 -7.62852e-016 -20   XYZ
    dof rx
    limits (-90.0 20.0)
  end
  begin
     id 11 
     name lowerback
     direction -0.0444974 0.988086 -0.147332   
     length 1.9609   
     axis 0 0 0   XYZ
    dof rx ry rz
    limits (-20.0 45.0)
           (-30.0 30.0)
           (-30.0 30.0)
  end
  begin
     id 12 
     name upperback
     direction 0.00613146 0.999513 0.0306081   
     length 1.94944   
     axis 0 0 0   XYZ
    dof rx ry rz
    limits (-20.0 45.0)
           (-30.0 30.0)
           (-30.0 30.0)
  end
  begin
     id 13 
     name thorax
     direction 0.0254621 0.994518 0.101418   
     length 2.0119   
     axis 0 0 0   XYZ
    dof rx ry rz
    limits (-20.0 45.0)
           (-30.0 30.0)
           (-30.0 30.0)
  end
  begin
     id 14 
     name lowerneck
     direction 0.0168698 0.977854 0.208608   
     length 1.6375   
     axis 0 0 0   XYZ
    dof rx ry rz
    limits (-20.0 45.0)
           (-30.0 30.0)
           (-30.0 30.0)
  end
  begin
     id 15 
     name upperneck
     direction -0.0283988 0.989338 -0.142843   
     length 1.6851   
     axis 0 0 0   XYZ
    dof rx ry rz
    limits (-20.0 45.0)
           (-30.0 30.0)
           (-30.0 30.0)
  end
  begin
     id 16
     name head
     direction -0.0129422 0.99741 -0.0707489  
     length 1.69029  
     axis 0 0 0   XYZ
    dof rx ry rz
    limits (-20.0 45.0)
           (-30.0 30.0)
           (-30.0 30.0)
  end
  begin
     id 17 
     name lclavicle
     direction 0.820295 0.564628 -0.0911715  
     length 3.16484  
     axis 0 0 0   XYZ
    dof ry rz
    limits (-20.0 10.0)
           (0.0 20.0)
  end
  begin
     id 18 
     name lhumerus
     direction 1 -4.48969e-011 1.00186e-027   
     length 5.17853   
     axis 180 -30 -90   XYZ
    dof rx ry rz
    limits (-60.0 90.0)
           (-90.0 90.0)
           (-90.0 90.0)
  end
  begin
     id 19
     name lradius
     direction 1 -4.48966e-011 -1.52922e-027   
     length 3.40399   
     axis 180 -30 -90   XYZ
    dof rx
    limits (-10.0 170.0)
  end
  begin
     id 20
     name lwrist
     direction 1 -4.48981e-011 -3.80893e-027   
     length 1.70199   
     axis 1.1049e-015 90 90   XYZ
    dof ry
    limits (-180.0 0.0)
 end
  begin
     id 21 
     name lhand
     direction 1 -4.48957e-011 -7.61786e-027   
     length 0.708964   
     axis 4.86085e-015 90 90   XYZ
    dof rx rz
    limits (-90.0 90.0)
           (-45.0 45.0)
  end
  begin
     id 22 
     name lfingers
     direction 1 -4.48929e-011 -1.52357e-026   
     length 0.571585   
     axis 9.7217e-015 90 90   XYZ
    dof rx
    limits (0.0 90.0)
  end
  begin
     id 23
     name lthumb
     direction 0.707107 -6.34905e-011 0.707107   
     length 0.820685   
     axis -90 45 2.85299e-015   XYZ
    dof rx rz
    limits (-45.0 45.0)
           (-45.0 45.0)
  end
  begin
     id 24 
     name rclavicle
     direction -0.858602 0.463947 -0.218075   
     length 3.35137  
     axis 0 0 0   XYZ 
    dof ry rz
    limits (-10.0 20.0)
           (-20.0 0.0)
  end
  begin
     id 25 
     name rhumerus
     direction -1 -4.48969e-011 -1.98511e-027  
     length 5.42351   
     axis 180 30 90   XYZ
    dof rx ry rz
    limits (-90.0 60.0)
           (-90.0 90.0)
           (-90.0 90.0)
  end
  begin
     id 26 
     name rradius
     direction -1 -4.48961e-011 -2.82624e-027   
     length 3.42066   
     axis 180 30 90   XYZ
    dof rx
    limits (-10.0 170.0)
  end
  begin
     id 27 
     name rwrist
     direction -1 -4.48966e-011 -3.80893e-027   
     length 1.71033   
     axis 1.1049e-015 -90 -90   XYZ
    dof ry
    limits (-180.0 0.0)
  end
  begin
     id 28
     name rhand
     direction -1 -4.48964e-011 -7.61786e-027   
     length 0.743608   
     axis 4.86085e-015 -90 -90   XYZ
    dof rx rz
    limits (-90.0 90.0)
           (-45.0 45.0)
  end
  begin
     id 29
     name rfingers
     direction -1 -4.48961e-011 -1.52357e-026   
     length 0.599516   
     axis 9.7217e-015 -90 -90   XYZ
    dof rx
    limits (0.0 90.0)
  end
  begin
     id 30
     name rthumb
     direction -0.707107 -6.34913e-011 0.707107   
     length 0.860789   
     axis -90 -45 -2.85299e-015   XYZ
    dof rx rz
    limits (-45.0 45.0)
           (-45.0 45.0)
  end
:hierarchy
  begin
    root lhipjoint rhipjoint lowerback
    lhipjoint lfemur
    lfemur ltibia
    ltibia lfoot
    lfoot ltoes
    rhipjoint rfemur
    rfemur rtibia
    rtibia rfoot
    rfoot rtoes
    lowerback upperback
    upperback thorax
    thorax lowerneck lclavicle rclavicle
    lowerneck upperneck
    upperneck head
    lclavicle lhumerus
    lhumerus lradius
    lradius lwrist
    lwrist lhand lthumb
    lhand lfingers
    rclavicle rhumerus
    rhumerus rradius
    rradius rwrist
    rwrist rhand rthumb
    rhand rfingers
  end

#!OML:ASF E:\mmandel\Project 1\Capture day 1\Session 2\Subject.ASF
:FULLY-SPECIFIED
:DEGREES
77
root -4.28193 1.94436 -1.38504 155.533 63.711 -100.794
lowerback 15.1897 -2.45919 0.349884
upperback 6.53423 -3.05351 -4.50905
thorax -1.85183 -1.33556 -4.43577
lowerneck -13.5653 13.0727 14.4238
upperneck 19.1544 20.532 -16.0364
head 11.7286 9.32384 -4.71541
rclavicle -4.45278e-014 -9.323e-014
rhumerus -47.4859 19.2643 -52.9276
rradius 37.6964
rwrist 5.86824
rhand 14.6368 25.9575
rfingers 7.12502
rthumb 39.5096 0.585409
lclavicle -4.45278e-014 -9.323e-014
lhumerus 15.3214 -4.11239 3.47698
lradius 23.4764
lwrist -1.54918
lhand -8.66633 -13.7122
lfingers 7.12502
lthumb 17.2676 15.5406
rfemur -31.5059 9.10786 17.1494
rtibia 123.371
rfoot 17.5208 -7.59797
rtoes -7.51954
lfemur -12.5944 37.6355 4.27181
ltibia 47.207
lfoot 14.3916 -0.343461
ltoes 10.5681
78
root -4.28579 1.9489 -1.37991 155.769 63.8761 -100.72
lowerback 14.8676 -2.43653 0.365024
upperback 6.6885 -3.0045 -4.49105
thorax -1.51376 -1.30387 -4.44551
lowerneck -13.4773 12.7199 13.3044
upperneck 19.1359 19.881 -15.0029
head 11.3288 9.0548 -4.32702
rclavicle -1.90833e-014 8.54774e-015
rhumerus -46.8616 19.3651 -53.3176
rradius 37.8839
rwrist 5.66373
rhand 14.8422 26.0121
rfingers 7.12502
rthumb 39.7031 0.697195
lclavicle -1.90833e-014 8.54774e-015
lhumerus 15.538 -5.65643 2.63424
lradius 23.6879
lwrist 0.168258
lhand -9.32068 -13.7319
lfingers 7.12502
lthumb 16.6377 15.575
rfemur -32.2215 9.27673 17.1996
rtibia 123.187
rfoot 19.0028 -6.96225
rtoes -6.0349
lfemur -12.7166 37.537 4.26049
ltibia 47.1397
lfoot 14.5537 -0.294323
ltoes 10.6719
79
root -4.28375 1.95075 -1.3773 155.759 64.0728 -100.693
lowerback 14.9123 -2.36265 0.495275
upperback 6.82721 -2.86876 -4.47231
thorax -1.38496 -1.22341 -4.52411
lowerneck -13.7306 12.432 12.3496
upperneck 19.5936 19.3681 -13.9392
head 11.2267 8.83492 -3.90264
rclavicle -8.90555e-014 6.57977e-014
rhumerus -46.3856 19.1873 -53.5583
rradius 38.0868
rwrist 5.62504
rhand 15.086 26.0361
rfingers 7.12502
rthumb 39.9326 0.789797
lclavicle -8.90555e-014 6.57977e-014
lhumerus 16.1265 -2.35362 4.49353
lradius 23.3522
lwrist -3.76569
lhand -9.32593 -14.4461
lfingers 7.12502
lthumb 16.6327 14.8612
rfemur -32.6734 9.54306 17.2598
rtibia 122.995
rfoot 20.5066 -6.61977
rtoes -3.40536
lfemur -12.5712 37.3326 4.37861
ltibia 47.082
lfoot 14.5356 -0.280041
ltoes 10.2578
80
root -4.28473 1.95274 -1.37183 155.574 64.1898 -100.826
lowerback 14.9983 -2.32561 0.476835
upperback 6.96523 -2.8051 -4.49725
thorax -1.27955 -1.18203 -4.55128
lowerneck -13.7672 12.3323 12.3752
upperneck 20.2865 19.2592 -13.6002
head 11.4355 8.81316 -3.80518
rclavicle -1.59028e-014 -9.14409e-015
rhumerus -46.0059 19.262 -54.0071
rradius 38.4771
rwrist 5.48683
rhand 15.1257 25.9649
rfingers 7.12502
rthumb 39.9699 0.729827
lclavicle -1.59028e-014 -9.14409e-015
lhumerus 16.4961 -1.41506 5.08044
lradius 23.2868
lwrist -5.11328
lhand -9.50336 -14.521
lfingers 7.12502
lthumb 16.4619 14.8006
rfemur -33.0848 9.70948 17.2245
rtibia 122.848
rfoot 21.7982 -6.70544
rtoes -0.659792
lfemur -12.2647 37.3208 4.48062
ltibia 46.9501
lfoot 14.1501 -0.343263
ltoes 10.4645
81
root -4.26924 1.94906 -1.36693 155.337 64.2594 -100.908
lowerback 15.0337 -2.46475 -0.776032
upperback 7.29719 -3.1379 -3.89622
thorax -0.878108 -1.38061 -3.15706
lowerneck -13.4004 12.4973 12.835
upperneck 20.43 19.9256 -14.7188
head 11.7175 9.07796 -4.15412
rclavicle -8.90555e-014 8.38871e-014
rhumerus -44.3735 20.6934 -53.767
rradius 38.9467
rwrist 5.04335
rhand 15.2373 25.9028
rfingers 7.12502
rthumb 40.075 0.6994
lclavicle -8.90555e-014 8.38871e-014
lhumerus 15.7268 -0.0549014 6.24416
lradius 22.7697
lwrist -6.33302
lhand -9.54543 -14.653
lfingers 7.12502
lthumb 16.4213 14.672
rfemur -33.4343 9.69055 17.1666
rtibia 122.772
rfoot 22.8514 -6.70175
rtoes 0.879416
lfemur -11.9808 37.2043 4.56232
ltibia 46.8565
lfoot 15.2425 -3.36069
ltoes -5.82929
82
root -4.25784 1.94545 -1.35905 154.78 64.2906 -101.368
lowerback 15.159 -2.50076 -1.72721
upperback 7.54673 -3.29379 -3.56752
thorax -0.614515 -1.48281 -2.25438
lowerneck -13.547 12.5494 12.8537
upperneck 21.1842 20.3033 -14.9707
head 12.1335 9.21769 -4.16012
rclavicle 6.36111e-015 -7.15625e-014
rhumerus -43.1531 21.4733 -53.6961
rradius 39.2282
rwrist 4.71967
rhand 15.3918 25.9369
rfingers 7.12502
rthumb 40.2203 0.77765
lclavicle 6.36111e-015 -7.15625e-014
lhumerus 15.6059 3.83413 8.38329
lradius 22.1798
lwrist -10.2658
lhand -9.39371 -15.5875
lfingers 7.12502
lthumb 16.5674 13.7252
rfemur -33.7306 9.60451 16.9187
rtibia 122.599
rfoot 23.8169 -6.45122
rtoes 0.977444
lfemur -11.7498 36.9353 4.40236
ltibia 46.7631
lfoot 14.6147 -2.21956
ltoes -0.88693
83
root -4.2537 1.94584 -1.35269 154.629 64.4174 -101.511
lowerback 15.1753 -2.47304 -1.9045
upperback 7.74056 -3.25867 -3.50341
thorax -0.402601 -1.46482 -2.09805
lowerneck -14.0677 12.4997 12.4227
upperneck 22.2112 20.23 -14.1556
head 12.4631 9.18541 -3.78668
rclavicle -4.45278e-014 4.53229e-014
rhumerus -42.4467 21.8654 -54.1012
rradius 39.3892
rwrist 4.06242
rhand 15.4135 25.8163
rfingers 7.12502
rthumb 40.2407 0.663367
lclavicle -4.45278e-014 4.53229e-014
lhumerus 15.4591 -3.33847 4.68718
lradius 23.0151
lwrist -2.23482
lhand -10.8055 -14.5163
lfingers 7.12502
lthumb 15.2078 14.9048
rfemur -34.0898 9.59241 16.9017
rtibia 122.343
rfoot 24.5847 -6.01068
rtoes -0.163595
lfemur -11.6733 36.8126 4.39665
ltibia 46.7525
lfoot 14.571 -2.01103
ltoes -0.979455
84
root -4.24962 1.94709 -1.34709 154.891 64.5378 -101.294
lowerback 15.1018 -2.52588 -1.90107
upperback 7.88631 -3.31538 -3.48923
thorax -0.210203 -1.49193 -2.08344
lowerneck -13.5017 12.3597 12.6135
upperneck 22.1244 19.9349 -13.9686
head 12.2652 9.12618 -3.84474
rclavicle 0 3.89618e-014
rhumerus -41.7436 22.2825 -54.6231
rradius 39.5619
rwrist 3.49149
rhand 15.5626 25.6354
rfingers 7.12502
rthumb 40.3809 0.525415
lclavicle 0 3.89618e-014
lhumerus 15.6671 -4.55836 3.70774
lradius 23.3126
lwrist -0.681117
lhand -10.7459 -14.1967
lfingers 7.12502
lthumb 15.2652 15.22
rfemur -34.5189 9.43907 17.0301
rtibia 122.059
rfoot 25.0186 -5.54983
rtoes -1.26933
lfemur -11.7478 36.7913 4.53482
ltibia 46.7876
lfoot 14.5594 -1.90207
ltoes 0.0144006
85
root -4.24584 1.94689 -1.34139 155.05 64.5887 -101.117
lowerback 15.1528 -2.61319 -1.96463
upperback 7.94486 -3.44176 -3.53509
thorax -0.176781 -1.5572 -2.0766
lowerneck -13.6586 12.3164 12.2616
upperneck 23.1322 19.7428 -12.7686
head 12.4608 9.11562 -3.38595
rclavicle -2.54444e-014 6.52014e-014
rhumerus -41.1738 22.8509 -55.3228
rradius 39.6666
rwrist 3.06356
rhand 15.5644 25.5317
rfingers 7.12502
rthumb 40.3826 0.422265
lclavicle -2.54444e-014 6.52014e-014
lhumerus 16.0069 -3.78663 3.67484
lradius 23.3034
lwrist -1.32314
lhand -9.86937 -14.1084
lfingers 7.12502
lthumb 16.1094 15.2421
rfemur -34.7593 9.12143 17.1185
rtibia 121.704
rfoot 25.2436 -5.30292
rtoes -1.32305
lfemur -11.7636 36.7128 4.6639
ltibia 46.8023
lfoot 14.6683 -1.86472
ltoes 1.00922
86
root -4.2445 1.94774 -1.33673 155.027 64.6947 -101.095
lowerback 15.196 -2.60085 -1.7053
upperback 7.9705 -3.38806 -3.78926
thorax -0.201569 -1.51421 -2.49558
lowerneck -12.5661 10.7553 9.52292
upperneck 23.1253 17.2261 -10.3448
head 11.3266 8.07666 -2.67849
rclavicle -6.04305e-014 6.79844e-014
rhumerus -41.0434 22.7128 -56.1765
rradius 39.7282
rwrist 3.05732
rhand 15.6492 25.7872
rfingers 7.12502
rthumb 40.4624 0.702308
lclavicle -6.04305e-014 6.79844e-014
lhumerus 18.8132 -0.870257 6.01974
lradius 21.1045
lwrist -5.39352
lhand -9.6042 -14.0901
lfingers 7.12502
lthumb 16.3648 15.2395
rfemur -34.9699 8.84917 17.2026
rtibia 121.418
rfoot 25.3244 -4.99147
rtoes -1.32809
lfemur -11.6613 36.5779 4.76546
ltibia 46.7255
lfoot 14.8062 -1.70544
ltoes 1.30364
87
root -4.24917 1.94827 -1.33216 154.952 64.7998 -101.235
lowerback 15.1213 -2.56753 -1.78297
upperback 8.05943 -3.34102 -3.83496
thorax -0.0641602 -1.48874 -2.51256
lowerneck -12.7396 11.0912 11.2769
upperneck 23.7955 17.6454 -10.9417
head 11.909 8.33479 -3.05799
rclavicle 3.49861e-014 -2.38542e-015
rhumerus -40.534 22.2758 -56.4294
rradius 39.8847
rwrist 3.52608
rhand 15.9618 26.1646
rfingers 7.12502
rthumb 40.7562 1.17124
lclavicle 3.49861e-014 -2.38542e-015
lhumerus 17.4621 -5.77281 2.37201
lradius 23.4086
lwrist 0.553782
lhand -9.583 -13.6004
lfingers 7.12502
lthumb 16.3852 15.7276
rfemur -35.333 8.59897 17.2298
rtibia 121.204
rfoot 25.236 -4.921
rtoes -1.41356
lfemur -11.569 36.4125 4.67865
ltibia 46.5299
lfoot 14.9741 -1.57744
ltoes 1.31097
88
root -4.25444 1.9465 -1.32777 154.457 64.9007 -101.835
lowerback 15.0455 -2.51241 -2.39571
upperback 8.23963 -3.32447 -3.68534
thorax 0.21378 -1.49864 -2.02334
lowerneck -12.7556 10.8861 11.0662
upperneck 24.3207 17.4838 -10.8934
head 12.0682 8.25228 -3.03639
rclavicle -3.18055e-015 6.2816e-014
rhumerus -39.571 22.3892 -56.3799
rradius 40.0236
rwrist 3.58577
rhand 15.9561 26.3341
rfingers 7.12502
rthumb 40.7508 1.33902
lclavicle -3.18055e-015 6.2816e-014
lhumerus 15.8498 -8.92794 -0.0602912
lradius 25.5755
lwrist 4.83349
lhand -9.58397 -13.3121
lfingers 7.12502
lthumb 16.3842 16.0159
rfemur -35.7066 8.33755 17.0648
rtibia 120.977
rfoot 25.0429 -5.18631
rtoes -1.29432
lfemur -11.357 36.3844 4.40895
ltibia 46.2635
lfoot 14.9409 -1.70611
ltoes 0.628202
89
root -4.25247 1.94192 -1.32565 153.878 65.1159 -102.483
lowerback 15.0471 -2.40963 -2.74077
upperback 8.37723 -3.2106 -3.67456
thorax 0.383347 -1.44679 -1.83975
lowerneck -12.701 10.7812 10.8026
upperneck 24.7899 17.2863 -10.2959
head 12.1212 8.20861 -2.81752
rclavicle -3.49861e-014 5.08889e-014
rhumerus -38.9048 22.7563 -56.7116
rradius 40.1293
rwrist 3.03616
rhand 15.7677 26.2413
rfingers 7.12502
rthumb 40.5738 1.19096
lclavicle -3.49861e-014 5.08889e-014
lhumerus 15.4835 -10.1614 -0.878591
lradius 26.5018
lwrist 6.63783
lhand -9.90226 -13.2159
lfingers 7.12502
lthumb 16.0778 16.1371
rfemur -36.0559 8.09574 16.942
rtibia 120.754
rfoot 24.7356 -5.37539
rtoes -1.78307
lfemur -11.073 36.4001 4.25682
ltibia 46.0171
lfoot 14.6777 -1.59613
ltoes 0.92389
90
root -4.24903 1.9366 -1.32554 153.774 65.394 -102.656
lowerback 15.0178 -2.40877 -2.73365
upperback 8.44105 -3.20071 -3.74116
thorax 0.46279 -1.43869 -1.91789
lowerneck -12.5104 10.8035 10.7049
upperneck 25.3018 17.1973 -9.48756
head 12.1733 8.26089 -2.5319
rclavicle -1.17681e-013 6.59965e-014
rhumerus -38.4685 23.4908 -57.432
rradius 40.3503
rwrist 2.12185
rhand 15.7504 25.967
rfingers 7.12502
rthumb 40.5576 0.911642
lclavicle -1.17681e-013 6.59965e-014
lhumerus 16.0685 -9.6408 -0.283112
lradius 26.0419
lwrist 5.77127
lhand -10.1784 -13.3136
lfingers 7.12502
lthumb 15.8119 16.0606
rfemur -36.3948 7.90024 17.0543
rtibia 120.49
rfoot 24.1943 -5.69028
rtoes -2.42788
lfemur -10.9235 36.3347 4.29175
ltibia 45.8402
lfoot 14.4739 -1.39152
ltoes 1.38815
